<svg width="170" height="92" viewBox="0 0 170 92" fill="none" xmlns="http://www.w3.org/2000/svg">
<rect x="0.5" y="0.5" width="169" height="91" rx="3.5" stroke="#AFB1B8"/>
<path d="M68.4062 65.1018C68.4221 65.1022 68.4378 65.1053 68.4523 65.111C68.4668 65.1167 68.4799 65.1248 68.4907 65.135L68.7089 65.3435C68.5395 65.5122 68.3303 65.6472 68.0954 65.7391C67.8203 65.8395 67.5239 65.8879 67.2257 65.8813C66.9454 65.8863 66.667 65.8411 66.4077 65.7486C66.1738 65.6636 65.9637 65.536 65.7915 65.3743C65.6158 65.2065 65.4805 65.01 65.3935 64.7962C65.2982 64.5578 65.2511 64.3069 65.2544 64.0546C65.2505 63.8007 65.3014 63.5483 65.4044 63.3107C65.4996 63.0955 65.6433 62.8989 65.827 62.7326C66.0132 62.5694 66.2359 62.4412 66.4813 62.3558C66.7499 62.2654 67.0358 62.2203 67.3238 62.2232C67.5913 62.2175 67.8574 62.2586 68.1063 62.344C68.3222 62.4254 68.5205 62.5384 68.6925 62.6781L68.5098 62.9008C68.4972 62.9165 68.4815 62.9301 68.4635 62.941C68.4419 62.9539 68.4159 62.9598 68.3899 62.9576C68.3616 62.9559 68.3343 62.9478 68.3108 62.9339L68.2126 62.8747L68.0763 62.7989C68.0175 62.7707 67.9564 62.7462 67.8936 62.7255C67.8128 62.7003 67.7298 62.6805 67.6455 62.6662C67.5385 62.6491 67.4299 62.6412 67.3211 62.6425C67.1137 62.6403 66.9079 62.6741 66.7158 62.742C66.5367 62.805 66.3749 62.9003 66.2414 63.0216C66.1054 63.1507 66.0007 63.3021 65.9333 63.467C65.8565 63.6556 65.8187 63.8545 65.8215 64.0546C65.8182 64.2578 65.8561 64.4598 65.9333 64.6516C65.9998 64.8151 66.1027 64.9656 66.2359 65.0947C66.3608 65.215 66.5156 65.309 66.6885 65.3695C66.8665 65.4336 67.0575 65.4659 67.2502 65.4643C67.3615 65.4658 67.4727 65.4594 67.5828 65.4453C67.7626 65.4263 67.9351 65.372 68.0872 65.2866C68.1635 65.2429 68.2356 65.1937 68.3026 65.1397C68.3306 65.1165 68.3675 65.103 68.4062 65.1018Z" fill="#AFB1B8"/>
<path d="M74.7043 64.0537C74.7077 64.3051 74.6578 64.5548 74.5571 64.7905C74.4682 65.0042 74.3283 65.1992 74.1464 65.3625C73.9645 65.5259 73.7449 65.6539 73.502 65.7381C72.9682 65.915 72.3781 65.915 71.8443 65.7381C71.6029 65.6526 71.3847 65.5243 71.2036 65.3614C71.0218 65.1951 70.8808 64.9984 70.7891 64.7834C70.5927 64.3062 70.5927 63.7846 70.7891 63.3074C70.8822 63.0922 71.023 62.895 71.2036 62.727C71.3862 62.5693 71.6043 62.4459 71.8443 62.3646C72.3774 62.1845 72.9688 62.1845 73.502 62.3646C73.7442 62.45 73.9633 62.5783 74.1454 62.7412C74.3249 62.9059 74.4648 63.1 74.5571 63.3122C74.6581 63.5494 74.708 63.8008 74.7043 64.0537ZM74.1318 64.0537C74.1361 63.8526 74.101 63.6523 74.0282 63.4614C73.9671 63.2979 73.8677 63.1471 73.7364 63.0184C73.6086 62.8967 73.4512 62.8012 73.2757 62.7389C72.8878 62.6093 72.4584 62.6093 72.0706 62.7389C71.895 62.8012 71.7376 62.8967 71.6098 63.0184C71.4767 63.1463 71.3763 63.2973 71.3154 63.4614C71.1766 63.8471 71.1766 64.2603 71.3154 64.646C71.3769 64.8098 71.4772 64.9607 71.6098 65.089C71.7378 65.2099 71.8952 65.3046 72.0706 65.3661C72.4591 65.4924 72.8871 65.4924 73.2757 65.3661C73.451 65.3046 73.6084 65.2099 73.7364 65.089C73.8672 64.96 73.9664 64.8093 74.0282 64.646C74.1013 64.4551 74.1364 64.2548 74.1318 64.0537Z" fill="#AFB1B8"/>
<path d="M79.0013 64.6746L79.0585 64.8072C79.0803 64.7599 79.0994 64.7172 79.1212 64.6746C79.142 64.63 79.1657 64.5865 79.1921 64.5443L80.5853 62.3437C80.6126 62.3058 80.6371 62.2821 80.6644 62.275C80.7015 62.2652 80.7402 62.2612 80.7789 62.2632H81.1906V65.8424H80.7026V63.2107C80.7026 63.1775 80.7026 63.1396 80.7026 63.0994C80.6999 63.0583 80.6999 63.0172 80.7026 62.9762L79.3012 65.2076C79.2834 65.241 79.2549 65.2692 79.2191 65.289C79.1833 65.3087 79.1418 65.3191 79.0994 65.3189H79.0203C78.9779 65.3194 78.9362 65.3091 78.9003 65.2894C78.8645 65.2696 78.8361 65.2412 78.8186 65.2076L77.3763 62.962C77.3763 63.0046 77.3763 63.0472 77.3763 63.0899C77.3763 63.1325 77.3763 63.1704 77.3763 63.2036V65.8353H76.9046V62.2632H77.3163C77.355 62.2612 77.3937 62.2652 77.4308 62.275C77.4646 62.2896 77.4916 62.3139 77.5072 62.3437L78.9304 64.5467C78.9583 64.5874 78.9821 64.6302 79.0013 64.6746Z" fill="#AFB1B8"/>
<path d="M84.2443 64.4967V65.8374H83.699V62.2631H84.915C85.1445 62.2592 85.3734 62.2856 85.5939 62.3412C85.7704 62.3847 85.934 62.4606 86.0737 62.5639C86.1948 62.6607 86.2882 62.7807 86.3464 62.9145C86.4107 63.0603 86.4422 63.2155 86.4391 63.3716C86.4415 63.5284 86.4072 63.6839 86.3382 63.8288C86.2726 63.9659 86.1719 64.0882 86.0437 64.1864C85.9038 64.294 85.7394 64.3747 85.5612 64.4233C85.3489 64.4822 85.1269 64.5103 84.9041 64.5062L84.2443 64.4967ZM84.2443 64.113H84.9041C85.0474 64.1146 85.1901 64.0962 85.3267 64.0585C85.4394 64.0256 85.5432 63.9732 85.632 63.9046C85.714 63.839 85.7774 63.758 85.8174 63.6677C85.8621 63.5722 85.8843 63.4699 85.8829 63.3669C85.8892 63.2675 85.8706 63.1681 85.8282 63.0757C85.7858 62.9832 85.7207 62.8999 85.6375 62.8315C85.4292 62.6902 85.1676 62.6218 84.9041 62.6397H84.2443V64.113Z" fill="#AFB1B8"/>
<path d="M91.573 65.8423H91.1422C91.099 65.8437 91.0566 65.832 91.0223 65.8091C90.9913 65.7868 90.967 65.7584 90.9514 65.7262L90.5806 64.8615H88.7184L88.334 65.7262C88.3198 65.7578 88.2963 65.7856 88.2658 65.8067C88.2312 65.831 88.1876 65.8436 88.1431 65.8423H87.7123L89.3482 62.2627H89.9153L91.573 65.8423ZM88.8738 64.5133H90.4115L89.7626 63.0563C89.713 62.9467 89.6721 62.8343 89.64 62.7199L89.5772 62.9071C89.5582 62.9639 89.5363 63.016 89.5173 63.0587L88.8738 64.5133Z" fill="#AFB1B8"/>
<path d="M93.9287 62.2794C93.9613 62.2949 93.9893 62.3168 94.0105 62.3433L96.3962 65.0416C96.3962 64.9989 96.3962 64.9563 96.3962 64.916C96.3962 64.8758 96.3962 64.8355 96.3962 64.7976V62.2628H96.8842V65.8423H96.6116C96.5728 65.8433 96.5344 65.836 96.4998 65.821C96.4661 65.8039 96.4365 65.7814 96.4125 65.7546L94.0296 63.0587C94.0322 63.0998 94.0322 63.1409 94.0296 63.1819C94.0296 63.2222 94.0296 63.2577 94.0296 63.2909V65.8423H93.5416V62.2628H93.8306C93.8643 62.262 93.8978 62.2676 93.9287 62.2794Z" fill="#AFB1B8"/>
<path d="M100.903 64.4193V65.8407H100.358V64.4193L98.85 62.2635H99.338C99.3801 62.2614 99.4216 62.2723 99.4553 62.2943C99.4849 62.3173 99.5098 62.3446 99.5289 62.3749L100.472 63.7655C100.51 63.8247 100.543 63.8792 100.57 63.9313C100.598 63.9834 100.619 64.0332 100.639 64.0829L100.709 63.9289C100.736 63.8726 100.767 63.818 100.802 63.7655L101.732 62.3654C101.751 62.3375 101.775 62.312 101.803 62.2896C101.835 62.265 101.877 62.2523 101.92 62.2541H102.413L100.903 64.4193Z" fill="#AFB1B8"/>
<path d="M78.7313 56.2563C78.9685 56.2823 79.2085 56.3036 79.4511 56.3226C83.13 54.8927 86.2421 52.5525 88.3986 49.5943C90.5551 46.6362 91.6602 43.1914 91.5758 39.6905L87.5215 36.168C88.3458 39.8953 87.9602 43.7483 86.4078 47.2961C84.8554 50.8438 82.1975 53.9462 78.7313 56.2563Z" fill="#AFB1B8"/>
<path d="M77.2836 56.0929L77.3927 56.1118C81.0966 53.81 83.9205 50.5957 85.4992 46.8845C87.0779 43.1733 87.3388 39.1359 86.2483 35.2945L80.4736 30.2773C82.8093 34.4014 83.7495 39.0168 83.1847 43.5868C82.62 48.1568 80.5737 52.4936 77.2836 56.0929Z" fill="#AFB1B8"/>
<path d="M96.8679 43.8271C95.8868 47.6737 93.504 51.1429 90.0735 53.7195C89.0716 54.4761 87.9909 55.1502 86.8453 55.733C89.6388 55.0196 92.2064 53.7584 94.3502 52.0466C96.4939 50.3347 98.1566 48.218 99.2099 45.8596L96.8679 43.8271Z" fill="#AFB1B8"/>
<path d="M95.949 43.2604L92.6146 40.3633C92.5508 43.6664 91.47 46.8944 89.4845 49.7117C87.499 52.5291 84.6813 54.833 81.3242 56.3841H81.3406C82.0887 56.3838 82.8362 56.3451 83.579 56.268C86.7164 55.1554 89.488 53.3853 91.6464 51.1156C93.8049 48.8459 95.283 46.1472 95.949 43.2604Z" fill="#AFB1B8"/>
<path d="M77.7662 28.1612L73.7883 24.7002C70.2322 25.8941 67.1737 27.9931 65.0133 30.7223C62.8529 33.4515 61.6911 36.6838 61.68 39.9961V39.9961C61.6933 43.6562 63.1112 47.2079 65.7092 50.089C68.3072 52.9702 71.937 55.0162 76.024 55.9033C79.6724 52.0412 81.8085 47.269 82.1218 42.28C82.4351 37.291 80.9094 32.3452 77.7662 28.1612Z" fill="#AFB1B8"/>
<path d="M105.14 42.7277C105.126 38.3852 103.134 34.2242 99.5996 31.1535C96.0655 28.0829 91.2763 26.3524 86.2783 26.3399C83.9687 26.3378 81.6788 26.7081 79.5248 27.4319L103.88 48.593C104.714 46.7225 105.141 44.7337 105.14 42.7277Z" fill="#AFB1B8"/>
</svg>
