<svg width="106" height="60" viewBox="0 0 106 60" fill="none" xmlns="http://www.w3.org/2000/svg">
<path d="M36.4062 49.1018C36.4221 49.1022 36.4378 49.1053 36.4523 49.111C36.4668 49.1167 36.4799 49.1248 36.4907 49.135L36.7089 49.3435C36.5395 49.5122 36.3303 49.6472 36.0954 49.7391C35.8203 49.8395 35.5239 49.8879 35.2257 49.8813C34.9454 49.8863 34.667 49.8411 34.4077 49.7486C34.1738 49.6636 33.9637 49.536 33.7915 49.3743C33.6158 49.2065 33.4805 49.01 33.3935 48.7962C33.2982 48.5578 33.2511 48.3069 33.2544 48.0546C33.2505 47.8007 33.3014 47.5483 33.4044 47.3107C33.4996 47.0955 33.6433 46.8989 33.827 46.7326C34.0132 46.5694 34.2359 46.4412 34.4813 46.3558C34.7499 46.2654 35.0358 46.2203 35.3238 46.2232C35.5913 46.2175 35.8574 46.2586 36.1063 46.344C36.3222 46.4254 36.5205 46.5384 36.6925 46.6781L36.5098 46.9008C36.4972 46.9165 36.4815 46.9301 36.4635 46.941C36.4419 46.9539 36.4159 46.9598 36.3899 46.9576C36.3616 46.9559 36.3343 46.9478 36.3108 46.9339L36.2126 46.8747L36.0763 46.7989C36.0175 46.7707 35.9564 46.7462 35.8936 46.7255C35.8128 46.7003 35.7298 46.6805 35.6455 46.6662C35.5385 46.6491 35.4299 46.6412 35.3211 46.6425C35.1137 46.6403 34.9079 46.6741 34.7158 46.742C34.5367 46.805 34.3749 46.9003 34.2414 47.0216C34.1054 47.1507 34.0007 47.3021 33.9333 47.467C33.8565 47.6556 33.8187 47.8545 33.8215 48.0546C33.8182 48.2578 33.8561 48.4598 33.9333 48.6516C33.9998 48.8151 34.1027 48.9656 34.2359 49.0947C34.3608 49.215 34.5156 49.309 34.6885 49.3695C34.8665 49.4336 35.0575 49.4659 35.2502 49.4643C35.3615 49.4658 35.4727 49.4594 35.5828 49.4453C35.7626 49.4263 35.9351 49.372 36.0872 49.2866C36.1635 49.2429 36.2356 49.1937 36.3026 49.1397C36.3306 49.1165 36.3675 49.103 36.4062 49.1018Z" fill="#AFB1B8"/>
<path d="M42.7043 48.0537C42.7077 48.3051 42.6578 48.5548 42.5571 48.7905C42.4682 49.0042 42.3283 49.1992 42.1464 49.3625C41.9645 49.5259 41.7449 49.6539 41.502 49.7381C40.9682 49.915 40.3781 49.915 39.8443 49.7381C39.6029 49.6526 39.3847 49.5243 39.2036 49.3614C39.0218 49.1951 38.8808 48.9984 38.7891 48.7834C38.5927 48.3062 38.5927 47.7846 38.7891 47.3074C38.8822 47.0922 39.023 46.895 39.2036 46.727C39.3862 46.5693 39.6043 46.4459 39.8443 46.3646C40.3774 46.1845 40.9688 46.1845 41.502 46.3646C41.7442 46.45 41.9633 46.5783 42.1454 46.7412C42.3249 46.9059 42.4648 47.1 42.5571 47.3122C42.6581 47.5494 42.708 47.8008 42.7043 48.0537ZM42.1318 48.0537C42.1361 47.8526 42.101 47.6523 42.0282 47.4614C41.9671 47.2979 41.8677 47.1471 41.7364 47.0184C41.6086 46.8967 41.4512 46.8012 41.2757 46.7389C40.8878 46.6093 40.4584 46.6093 40.0706 46.7389C39.895 46.8012 39.7376 46.8967 39.6098 47.0184C39.4767 47.1463 39.3763 47.2973 39.3154 47.4614C39.1766 47.8471 39.1766 48.2603 39.3154 48.646C39.3769 48.8098 39.4772 48.9607 39.6098 49.089C39.7378 49.2099 39.8952 49.3046 40.0706 49.3661C40.4591 49.4924 40.8871 49.4924 41.2757 49.3661C41.451 49.3046 41.6084 49.2099 41.7364 49.089C41.8672 48.96 41.9664 48.8093 42.0282 48.646C42.1013 48.4551 42.1364 48.2548 42.1318 48.0537Z" fill="#AFB1B8"/>
<path d="M47.0013 48.6746L47.0585 48.8072C47.0803 48.7599 47.0994 48.7172 47.1212 48.6746C47.142 48.63 47.1657 48.5865 47.1921 48.5443L48.5853 46.3437C48.6126 46.3058 48.6371 46.2821 48.6644 46.275C48.7015 46.2652 48.7402 46.2612 48.7789 46.2632H49.1906V49.8424H48.7026V47.2107C48.7026 47.1775 48.7026 47.1396 48.7026 47.0994C48.6999 47.0583 48.6999 47.0172 48.7026 46.9762L47.3012 49.2076C47.2834 49.241 47.2549 49.2692 47.2191 49.289C47.1833 49.3087 47.1418 49.3191 47.0994 49.3189H47.0203C46.9779 49.3194 46.9362 49.3091 46.9003 49.2894C46.8645 49.2696 46.8361 49.2412 46.8186 49.2076L45.3763 46.962C45.3763 47.0046 45.3763 47.0472 45.3763 47.0899C45.3763 47.1325 45.3763 47.1704 45.3763 47.2036V49.8353H44.9046V46.2632H45.3163C45.355 46.2612 45.3937 46.2652 45.4308 46.275C45.4646 46.2896 45.4916 46.3139 45.5072 46.3437L46.9304 48.5467C46.9583 48.5874 46.9821 48.6302 47.0013 48.6746Z" fill="#AFB1B8"/>
<path d="M52.2443 48.4967V49.8374H51.699V46.2631H52.915C53.1445 46.2592 53.3734 46.2856 53.5939 46.3412C53.7704 46.3847 53.934 46.4606 54.0737 46.5639C54.1948 46.6607 54.2882 46.7807 54.3464 46.9145C54.4107 47.0603 54.4422 47.2155 54.4391 47.3716C54.4415 47.5284 54.4072 47.6839 54.3382 47.8288C54.2726 47.9659 54.1719 48.0882 54.0437 48.1864C53.9038 48.294 53.7394 48.3747 53.5612 48.4233C53.3489 48.4822 53.1269 48.5103 52.9041 48.5062L52.2443 48.4967ZM52.2443 48.113H52.9041C53.0474 48.1146 53.1901 48.0962 53.3267 48.0585C53.4394 48.0256 53.5432 47.9732 53.632 47.9046C53.714 47.839 53.7774 47.758 53.8174 47.6677C53.8621 47.5722 53.8843 47.4699 53.8829 47.3669C53.8892 47.2675 53.8706 47.1681 53.8282 47.0757C53.7858 46.9832 53.7207 46.8999 53.6375 46.8315C53.4292 46.6902 53.1676 46.6218 52.9041 46.6397H52.2443V48.113Z" fill="#AFB1B8"/>
<path d="M59.573 49.8423H59.1422C59.099 49.8437 59.0566 49.832 59.0223 49.8091C58.9913 49.7868 58.967 49.7584 58.9514 49.7262L58.5806 48.8615H56.7184L56.334 49.7262C56.3198 49.7578 56.2963 49.7856 56.2658 49.8067C56.2312 49.831 56.1876 49.8436 56.1431 49.8423H55.7123L57.3482 46.2627H57.9153L59.573 49.8423ZM56.8738 48.5133H58.4115L57.7626 47.0563C57.713 46.9467 57.6721 46.8343 57.64 46.7199L57.5772 46.9071C57.5582 46.9639 57.5363 47.016 57.5173 47.0587L56.8738 48.5133Z" fill="#AFB1B8"/>
<path d="M61.9287 46.2794C61.9613 46.2949 61.9893 46.3168 62.0105 46.3433L64.3962 49.0416C64.3962 48.9989 64.3962 48.9563 64.3962 48.916C64.3962 48.8758 64.3962 48.8355 64.3962 48.7976V46.2628H64.8842V49.8423H64.6116C64.5728 49.8433 64.5344 49.836 64.4998 49.821C64.4661 49.8039 64.4365 49.7814 64.4125 49.7546L62.0296 47.0587C62.0322 47.0998 62.0322 47.1409 62.0296 47.1819C62.0296 47.2222 62.0296 47.2577 62.0296 47.2909V49.8423H61.5416V46.2628H61.8306C61.8643 46.262 61.8978 46.2676 61.9287 46.2794Z" fill="#AFB1B8"/>
<path d="M68.903 48.4193V49.8407H68.3577V48.4193L66.85 46.2635H67.338C67.3801 46.2614 67.4216 46.2723 67.4553 46.2943C67.4849 46.3173 67.5098 46.3446 67.5289 46.3749L68.4722 47.7655C68.5104 47.8247 68.5431 47.8792 68.5704 47.9313C68.5977 47.9834 68.6195 48.0332 68.6386 48.0829L68.7094 47.9289C68.7359 47.8726 68.7669 47.818 68.8021 47.7655L69.7319 46.3654C69.7514 46.3375 69.7753 46.312 69.8028 46.2896C69.8351 46.265 69.8771 46.2523 69.92 46.2541H70.4135L68.903 48.4193Z" fill="#AFB1B8"/>
<path d="M46.7313 40.2563C46.9685 40.2823 47.2085 40.3036 47.4511 40.3226C51.13 38.8927 54.2421 36.5525 56.3986 33.5943C58.5551 30.6362 59.6602 27.1914 59.5758 23.6905L55.5215 20.168C56.3458 23.8953 55.9602 27.7483 54.4078 31.2961C52.8554 34.8438 50.1975 37.9462 46.7313 40.2563Z" fill="#AFB1B8"/>
<path d="M45.2836 40.0929L45.3927 40.1118C49.0966 37.81 51.9205 34.5957 53.4992 30.8845C55.0779 27.1733 55.3388 23.1359 54.2483 19.2945L48.4736 14.2773C50.8093 18.4014 51.7495 23.0168 51.1847 27.5868C50.62 32.1568 48.5737 36.4936 45.2836 40.0929Z" fill="#AFB1B8"/>
<path d="M64.8679 27.8271C63.8868 31.6737 61.504 35.1429 58.0735 37.7195C57.0716 38.4761 55.9909 39.1502 54.8453 39.733C57.6388 39.0196 60.2064 37.7584 62.3502 36.0466C64.4939 34.3347 66.1566 32.218 67.2099 29.8596L64.8679 27.8271Z" fill="#AFB1B8"/>
<path d="M63.949 27.2604L60.6146 24.3633C60.5508 27.6664 59.47 30.8944 57.4845 33.7117C55.499 36.5291 52.6813 38.833 49.3242 40.3841H49.3406C50.0887 40.3838 50.8362 40.3451 51.579 40.268C54.7164 39.1554 57.488 37.3853 59.6464 35.1156C61.8049 32.8459 63.283 30.1472 63.949 27.2604Z" fill="#AFB1B8"/>
<path d="M45.7662 12.1612L41.7883 8.7002C38.2322 9.89415 35.1737 11.9931 33.0133 14.7223C30.8529 17.4515 29.6911 20.6838 29.68 23.9961V23.9961C29.6933 27.6562 31.1112 31.2079 33.7092 34.089C36.3072 36.9702 39.937 39.0162 44.024 39.9033C47.6724 36.0412 49.8085 31.269 50.1218 26.28C50.4351 21.291 48.9094 16.3452 45.7662 12.1612Z" fill="#AFB1B8"/>
<path d="M73.14 26.7277C73.1256 22.3852 71.1338 18.2242 67.5996 15.1535C64.0655 12.0829 59.2763 10.3524 54.2783 10.3399C51.9687 10.3378 49.6788 10.7081 47.5248 11.4319L71.8804 32.593C72.7143 30.7225 73.1414 28.7337 73.14 26.7277Z" fill="#AFB1B8"/>
</svg>
